# xmcd
#
# Track frame offsets:
#	150
#	10966
#	29610
#	44173
#	62654
#	82133
#	96420
#	114192
#	134967
#	155737
#	170616
#
# Disc length: 2448 seconds
#
# Revision: 0
# Processed by: cddbd v1.5.1PL0 Copyright (c) Steve Scherf et al.
# Submitted via: dBpowerAMP V4.0
#
DISCID=a3098e0b
DTITLE=Geraldo Trindade - Voltando Pra Casa
DYEAR=1900
DGENRE=Other
TTITLE0="Chacoalhando" A "Mondonguêra"
TTITLE1=Tardes De Ninguêm
TTITLE2=Herança
TTITLE3=Espinho E Flor
TTITLE4=Saudade Fogoneira
TTITLE5=Mais Um Chamamé
TTITLE6=A Procurar Estrada
TTITLE7=A Troco De Nada
TTITLE8=Voltando Pra Casa
TTITLE9=Caminhos
TTITLE10=Letras Brasileiras
EXTD=
EXTT0=
EXTT1=
EXTT2=
EXTT3=
EXTT4=
EXTT5=
EXTT6=
EXTT7=
EXTT8=
EXTT9=
EXTT10=
PLAYORDER=
